<?xml version="1.0" encoding="UTF-8" standalone="no"?>
<!-- Created with Inkscape (http://www.inkscape.org/) -->

<svg
   width="950mm"
   height="297mm"
   viewBox="0 0 950 297"
   version="1.1"
   id="svg340"
   inkscape:version="1.4 (86a8ad7, 2024-10-11)"
   sodipodi:docname="Logo_Black_Clean.svg"
   xmlns:inkscape="http://www.inkscape.org/namespaces/inkscape"
   xmlns:sodipodi="http://sodipodi.sourceforge.net/DTD/sodipodi-0.dtd"
   xmlns="http://www.w3.org/2000/svg"
   xmlns:svg="http://www.w3.org/2000/svg">
  <sodipodi:namedview
     id="namedview342"
     pagecolor="#ffffff"
     bordercolor="#000000"
     borderopacity="0.25"
     inkscape:showpageshadow="2"
     inkscape:pageopacity="0.0"
     inkscape:pagecheckerboard="0"
     inkscape:deskcolor="#d1d1d1"
     inkscape:document-units="mm"
     showgrid="false"
     inkscape:zoom="0.26110523"
     inkscape:cx="1729.1879"
     inkscape:cy="239.36709"
     inkscape:window-width="1920"
     inkscape:window-height="1009"
     inkscape:window-x="-8"
     inkscape:window-y="-8"
     inkscape:window-maximized="1"
     inkscape:current-layer="layer1" />
  <defs
     id="defs337" />
  <g
     inkscape:label="Layer 1"
     inkscape:groupmode="layer"
     id="layer1">
    <rect
       style="fill:#ffffff;stroke-width:0.264583"
       id="rect1"
       width="961.64136"
       height="303.99622"
       x="-6.0799241"
       y="-3.0399621"
       ry="2.3564453" />
    <path
       id="path52"
       style="display:inline;fill:#000000;stroke-width:0.781157;fill-opacity:1"
       inkscape:label="Curve"
       d="M 911.09921,183.07143 C 805.94993,212.85638 697.2216,228.12585 587.93569,228.45551 517.15095,227.7425 446.56802,220.76231 377.01477,207.59688 v 0.0174 c -29.86822,-7.53863 -60.54183,-11.06303 -91.34635,-11.20339 -85.15919,0.24497 -167.66978,29.12598 -234.440711,81.80048 h 2.35952 C 119.93905,226.7087 201.5082,198.4916 285.66842,198.24968 c 30.80452,0.14037 61.47813,3.66486 91.34635,11.20326 v -0.0175 c 69.55325,13.16547 140.13618,20.14562 210.92092,20.85863 C 697.2216,229.96431 805.94993,214.69495 911.09921,184.91 Z" />
    <path
       id="path4"
       style="fill:#000000;stroke-width:0.919386;fill-opacity:1"
       inkscape:label="l"
       d="M 870.47911,38.077223 793.38323,211.38395 c 15.2779,-2.70538 30.4895,-5.78076 45.6588,-9.07897 L 913.21091,38.077223 Z" />
    <path
       id="path5"
       style="fill:#000000;stroke-width:0.919386;fill-opacity:1"
       inkscape:label="a"
       d="m 740.09272,85.000203 c -37.59925,0.28042 -45.71979,5.19673 -45.71979,5.19673 0,0 -33.05665,29.753737 -22.66151,28.163467 46.43488,-7.10372 64.74492,-10.52065 64.74492,-10.52065 0,0 32.47419,11.52694 10.68266,21.52821 -28.70827,13.17576 -106.50364,41.11214 -106.50364,41.11214 0,0 -37.37743,30.99634 3.28068,57.65757 38.23809,-1.90335 76.34063,-5.57319 114.18379,-11.11708 l 46.0162,-105.1336 c 0,0 -11.1589,-25.233657 -33.0207,-26.222357 -12.0791,-0.54628 -22.32576,-0.72913 -31.00261,-0.66443 z m -3.58224,69.807197 -18.0844,43.03532 -33.42123,12.13162 c 0,0 -5.26426,3.20507 -16.02291,-7.78249 -9.17332,-9.36853 4.12108,-24.26505 4.12108,-24.26505 z"
       sodipodi:nodetypes="scscsccccsscccscc" />
    <path
       id="path3"
       style="fill:#000000;stroke-width:0.919386;fill-opacity:1"
       inkscape:label="r"
       d="M 634.80832,84.693173 594.01766,114.15312 606.64308,85.341403 H 581.71719 L 517.85378,226.95249 c 13.97144,0.95969 27.95736,1.72642 41.95971,2.19616 2.50661,-5.60999 34.29239,-77.21014 40.67934,-92.01258 8.30024,-19.23636 39.17107,-24.92589 39.17107,-24.92589 l 27.51702,-27.517007 z" />
    <path
       id="path9"
       style="fill:#000000;stroke-width:0.919386;fill-opacity:1"
       inkscape:label="f"
       d="m 556.03174,37.958733 c -5.40501,0.0138 -12.25289,0.0692 -20.9053,0.19562 -15.09482,0.22067 -27.25541,8.29049 -35.77717,17.29781 -3.07679,3.25205 -14.10157,29.5659 -14.10157,29.5659 h -26.06071 l -12.4638,26.382187 h 27.19379 l -47.36649,105.79442 c 13.37934,1.95621 26.79243,3.64418 40.22689,5.14641 l 49.06161,-110.77925 h 27.19202 L 554.5234,85.179673 h -25.89735 c 0,0 5.21976,-14.96562 19.07555,-24.40333 12.65477,-8.61963 21.48536,-7.42515 21.48536,-7.42515 l 6.28841,-15.08373 c 0,0 -3.22842,-0.34783 -19.44363,-0.30892 z" />
    <path
       id="path8"
       style="fill:#000000;stroke-width:0.919386;fill-opacity:1"
       inkscape:label="I"
       d="m 423.73989,38.077703 -12.46381,27.35363 42.97429,-0.16162 24.037,-27.19202 z m -20.71855,46.94094 -53.52393,118.249267 c 9.22847,1.56914 18.41887,3.37272 27.51703,5.66897 v -0.0179 c 3.91001,0.74012 7.83458,1.3892 11.75096,2.09017 L 445.10495,85.018653 Z" />
    <path
       id="path2"
       style="fill:#000000;stroke-width:0.922584;fill-opacity:1"
       inkscape:label="M"
       d="m 57.995639,38.852983 46.560251,92.479447 h 12.44768 l -66.384601,147.41653 3.52133,-1.06844 c 17.534014,-13.55997 36.219804,-25.5613 55.843951,-35.86695 l 48.9485,-110.82773 h 7.44669 l -2.0435,87.28632 c 20.48837,-6.86951 41.52487,-11.98054 62.88122,-15.27763 13.44335,-17.13271 55.05564,-72.33191 55.05564,-72.33191 h 14.88976 l -30.37037,68.19645 c 6.28178,-0.53168 12.57578,-0.90707 18.87623,-1.12589 8.27671,0.26931 16.54248,0.80895 24.78401,1.6179 L 381.61891,38.852983 h -78.3312 L 205.70229,181.31323 211.97003,38.852983 Z"
       sodipodi:nodetypes="cccccccccccccccccccc" />
    <path
       style="display:inline;fill:#808000;stroke-width:0.955184;fill-opacity:1"
       d="m 35.469419,38.842383 h 20.70341 l 4.1931,8.29546 -20.26661,0.24289"
       id="path6"
       sodipodi:nodetypes="cccc"
       inkscape:label="PAD8" />
    <path
       style="display:inline;fill:#808000;stroke-width:0.955175;fill-opacity:1"
       d="m 40.723319,49.233163 h 20.702734 l 4.19294,8.29543 -20.265964,0.24289"
       id="path6-6"
       sodipodi:nodetypes="cccc"
       inkscape:label="PAD7" />
    <path
       style="display:inline;fill:#808000;stroke-width:0.955175;fill-opacity:1"
       d="m 46.060049,59.693883 h 20.702714 l 4.19297,8.29545 -20.265964,0.2429"
       id="path6-0"
       sodipodi:nodetypes="cccc"
       inkscape:label="PAD6" />
    <path
       style="display:inline;fill:#808000;stroke-width:0.955175;fill-opacity:1"
       d="m 51.209089,70.165043 h 20.702734 l 4.19297,8.29545 -20.265984,0.2429"
       id="path6-3"
       sodipodi:nodetypes="cccc"
       inkscape:label="PAD5" />
    <path
       style="display:inline;fill:#808000;stroke-width:0.955175;fill-opacity:1"
       d="m 56.543609,80.786753 h 20.702694 l 4.19299,8.29542 -20.26596,0.24289"
       id="path6-31"
       sodipodi:nodetypes="cccc"
       inkscape:label="PAD4" />
    <path
       style="display:inline;fill:#808000;stroke-width:0.955175;fill-opacity:1"
       d="m 61.721703,91.289713 h 20.70276 l 4.19294,8.295416 -20.26599,0.24289"
       id="path6-7"
       sodipodi:nodetypes="cccc"
       inkscape:label="PAD3" />
    <path
       style="display:inline;fill:#808000;stroke-width:0.955175;fill-opacity:1"
       d="m 67.277873,101.87129 h 20.70273 l 4.19295,8.29542 -20.26594,0.2429"
       id="path6-1"
       sodipodi:nodetypes="cccc"
       inkscape:label="PAD2" />
    <path
       style="display:inline;fill:#808000;stroke-width:0.955175;fill-opacity:1"
       d="m 72.453463,112.52314 h 20.70268 l 4.19297,8.29543 -20.26596,0.2429"
       id="path6-74"
       sodipodi:nodetypes="cccc"
       inkscape:label="PAD1" />
    <path
       style="display:inline;fill:#808000;stroke-width:0.955175;fill-opacity:1"
       d="m 77.820193,123.07504 h 20.70276 l 4.192947,8.29545 -20.265937,0.24289"
       id="path6-4"
       sodipodi:nodetypes="cccc"
       inkscape:label="PAD0" />
  </g>
</svg>
